<svg width="20" height="20" viewBox="0 0 20 20" fill="none" xmlns="http://www.w3.org/2000/svg">
<path d="M16.8492 5.52435H8.73663C7.49058 5.52435 7.31573 3.23352 7.05603 2.37057C6.93032 1.9529 6.54688 1.66667 6.11273 1.66667H2.65221C1.2965 1.66667 1.21749 4.49394 2.65221 4.49394C3.4138 4.49394 4.67544 4.23951 4.96345 5.1989L7.00215 12.0142C7.32961 13.1051 8.4134 13.774 9.52888 13.5598C12.0579 13.0788 14.6384 12.476 16.9548 11.3231C17.6678 10.969 18.1495 10.2799 18.2456 9.48697C18.3546 8.5765 18.3562 7.66562 18.2467 6.75512C18.1622 6.04803 17.558 5.52435 16.8492 5.52435Z" fill="#172029"/>
<path d="M6.33159 16.5672C6.33159 17.5425 7.12066 18.3333 8.09248 18.3333C9.0643 18.3333 9.85338 17.5425 9.85338 16.5672C9.85338 15.5909 9.0643 14.8001 8.09248 14.8001C7.12066 14.8001 6.33159 15.5909 6.33159 16.5672Z" fill="#172029"/>
<path d="M15.3109 18.3333C14.339 18.3333 13.55 17.5425 13.55 16.5672C13.55 15.5909 14.339 14.8001 15.3109 14.8001C16.2827 14.8001 17.0718 15.5909 17.0718 16.5672C17.0718 17.5425 16.2827 18.3333 15.3109 18.3333Z" fill="#172029"/>
</svg>
