<svg width="14" height="14" viewBox="0 0 14 14" fill="none" xmlns="http://www.w3.org/2000/svg">
<path d="M7.81036 0.397435C7.39834 0.242359 6.60122 0.242359 6.1892 0.397435C5.56371 0.632852 5.54145 1.22259 5.54145 1.79167V5.54167L1.16645 5.54167C-0.0960391 5.54167 -0.0221826 8.45834 1.16645 8.45834L5.54145 8.45834V12.2083C5.54145 12.7774 5.56371 13.3672 6.1892 13.6026C6.60122 13.7577 7.39834 13.7577 7.81036 13.6026C8.43585 13.3672 8.45811 12.7774 8.45811 12.2083V8.45834L12.8331 8.45834C14.0956 8.45834 14.0217 5.54168 12.8331 5.54167L8.45811 5.54167V1.79167C8.45811 1.22259 8.43585 0.632853 7.81036 0.397435Z" fill="#0073E6"/>
</svg>
