<svg width="18" height="16" viewBox="0 0 18 16" fill="none" xmlns="http://www.w3.org/2000/svg">
<path fill-rule="evenodd" clip-rule="evenodd" d="M16.8584 7.78566C16.3154 6.56234 15.2479 5.70871 13.9864 5.30913C12.8812 4.96517 11.8218 4.96195 10.9551 4.94905C9.66337 4.92433 5.7268 4.88671 5.7268 4.88671L7.5529 3.16475C8.66789 2.03663 6.80932 0.0524217 5.57263 0.875252C5.09554 1.19342 4.26322 1.84157 2.96423 3.13788C2.04337 4.05582 1.41731 4.82006 1.00792 5.37793C0.552699 5.99921 0.552699 6.83869 1.00792 7.45997C1.41731 8.01891 2.04337 8.781 2.96423 9.69895C4.26322 10.9963 5.09554 11.6445 5.57263 11.9626C6.80161 12.7838 8.66687 10.8002 7.5529 9.67315L5.71951 8.14252C5.79764 8.14144 9.51233 8.11027 10.9551 8.08233C11.6854 8.07025 12.4361 8.04178 13.1478 8.23603C13.7333 8.41124 14.0312 8.63481 14.2437 9.05294C14.7024 10.0234 14.7083 11.5589 13.8645 12.341C13.4937 12.6774 12.853 12.915 12.1072 13.0257C11.8145 13.0719 10.8488 13.1418 10.9655 14.4252C11.0832 15.7151 12.0239 15.6968 12.4291 15.6527C13.4124 15.5388 14.5364 15.2905 15.5531 14.4929C16.5531 13.6865 17.0967 12.4976 17.2667 11.2435C17.4201 10.0856 17.3305 8.86394 16.8584 7.78566Z" fill="#0073E6"/>
</svg>
