<svg width="20" height="20" viewBox="0 0 20 20" fill="none" xmlns="http://www.w3.org/2000/svg">
<path fill-rule="evenodd" clip-rule="evenodd" d="M13.3335 2.91667C13.3335 2.07964 12.8628 1.66667 12.0835 1.66667H7.91687C7.13756 1.66667 6.66687 2.07964 6.66687 2.91667C6.66687 3.75371 7.13756 4.16667 7.91687 4.16667L12.0835 4.16667C12.8628 4.16667 13.3335 3.75371 13.3335 2.91667ZM1.66748 6.45834C1.66748 5.37789 2.12306 5.00001 3.12581 5.00001H16.8758C17.8786 5.00001 18.3341 5.37789 18.3341 6.45834C18.3341 7.83352 17.3462 7.91667 16.2502 7.91667V14.3333C16.2502 16.5425 14.4593 18.3333 12.2502 18.3333H7.7502C5.54106 18.3333 3.7502 16.5425 3.7502 14.3333V7.91667C2.65451 7.91667 1.66748 7.83285 1.66748 6.45834ZM10.7502 8.66668C10.7502 8.25247 10.4144 7.91668 10.0002 7.91668C9.58599 7.91668 9.2502 8.25247 9.2502 8.66668L9.2502 14.6667C9.2502 15.0809 9.58599 15.4167 10.0002 15.4167C10.4144 15.4167 10.7502 15.0809 10.7502 14.6667V8.66668ZM6.30404 7.92183C6.71769 7.90015 7.07059 8.21791 7.09227 8.63155L7.40628 14.6233C7.42796 15.037 7.11021 15.3899 6.69656 15.4116C6.28292 15.4332 5.93002 15.1155 5.90834 14.7018L5.59432 8.71006C5.57264 8.29641 5.8904 7.94351 6.30404 7.92183ZM14.4062 8.71005C14.4279 8.2964 14.1101 7.9435 13.6965 7.92182C13.2828 7.90014 12.9299 8.2179 12.9082 8.63154L12.5942 14.6233C12.5725 15.037 12.8903 15.3899 13.3039 15.4115C13.7176 15.4332 14.0705 15.1155 14.0922 14.7018L14.4062 8.71005Z" fill="#ED2C19"/>
</svg>
